<svg width="97" height="100" viewBox="0 0 97 100" fill="none" xmlns="http://www.w3.org/2000/svg">
<path d="M0.0292969 0H96.2713V100H0.0292969V0Z" fill="#F7DF1E"/>
<path d="M25.3351 83.567L32.7002 78.9358C34.121 81.5534 35.4136 83.7682 38.5139 83.7682C41.4858 83.7682 43.3595 82.5602 43.3595 77.8618V45.9094H52.4038V77.9947C52.4038 87.728 46.9128 92.1583 38.9017 92.1583C31.6666 92.1583 27.4667 88.2648 25.3349 83.5662" fill="black"/>
<path d="M57.3161 82.5602L64.6803 78.1299C66.6189 81.4194 69.1384 83.8358 73.5958 83.8358C77.3433 83.8358 79.733 81.889 79.733 79.2039C79.733 75.9818 77.2782 74.8406 73.1435 72.9617L70.883 71.954C64.3577 69.0682 60.0291 65.4434 60.0291 57.7909C60.0291 50.7426 65.1973 45.3723 73.273 45.3723C79.0228 45.3723 83.1574 47.4534 86.1288 52.8907L79.087 57.5893C77.5364 54.7031 75.8572 53.5622 73.2732 53.5622C70.6244 53.5622 68.9446 55.3074 68.9446 57.5893C68.9446 60.4087 70.6244 61.5501 74.5002 63.2955L76.7611 64.3023C84.449 67.726 88.7776 71.2161 88.7776 79.0696C88.7776 87.528 82.382 92.1593 73.7898 92.1593C65.3914 92.1593 59.9646 87.9977 57.3163 82.5602" fill="black"/>
</svg>
