<svg width="127" height="100" viewBox="0 0 127 100" fill="none" xmlns="http://www.w3.org/2000/svg">
<path d="M109.003 57.4487C104.576 57.475 100.742 58.5946 97.527 60.2615C96.3398 57.7875 95.1526 55.6258 94.955 54.0115C94.7324 52.1365 94.4603 50.9904 94.7324 48.7511C95.0042 46.5112 96.2409 43.3341 96.2409 43.0737C96.2159 42.8393 95.9686 41.6935 93.4213 41.6675C90.874 41.6414 88.6725 42.1883 88.4252 42.8914C88.1778 43.5946 87.6832 45.2091 87.3616 46.8758C86.9164 49.3237 82.2666 57.9956 79.6201 62.5529C78.7545 60.782 78.0125 59.2196 77.8638 57.9693C77.6415 56.0946 77.3692 54.9485 77.6415 52.7091C77.9135 50.4693 79.1502 47.2925 79.1502 47.0321C79.1255 46.7977 78.8781 45.6518 76.3309 45.6258C73.7831 45.5998 71.5821 46.1466 71.3348 46.8498C71.0874 47.5529 70.8154 49.2196 70.2712 50.8341C69.7516 52.4487 63.5683 66.9279 61.9606 70.7039C61.1444 72.631 60.4274 74.1675 59.9078 75.2091C59.3884 76.2508 59.883 75.2873 59.8336 75.3914C59.3884 76.2768 59.141 76.7716 59.141 76.7716V76.7979C58.7948 77.449 58.4238 78.0737 58.2504 78.0737C58.1267 78.0737 57.8794 76.3289 58.2998 73.9333C59.215 68.9071 61.441 61.0688 61.4165 60.7823C61.4165 60.6521 61.8367 59.2716 59.9817 58.5688C58.1762 57.8656 57.5334 59.0375 57.3847 59.0375C57.2363 59.0375 57.1127 59.4542 57.1127 59.4542C57.1127 59.4542 59.116 50.6263 53.279 50.6263C49.6185 50.6263 44.5729 54.819 42.0748 58.6472C40.4919 59.5586 37.1282 61.4854 33.5666 63.543C32.2063 64.3242 30.7965 65.1576 29.4609 65.9128L29.1891 65.5998C22.1154 57.6571 9.0315 52.0321 9.57563 41.355C9.7735 37.4748 11.0596 27.2404 34.7048 14.8446C54.071 4.68832 69.5787 7.47477 72.2744 13.6727C76.108 22.5269 63.9887 38.9852 43.8561 41.355C36.1888 42.2664 32.1571 39.1414 31.1433 37.9696C30.0797 36.7456 29.9313 36.6935 29.5356 36.9279C28.8925 37.2925 29.2883 38.3862 29.5356 39.0373C30.1292 40.6779 32.6025 43.5946 36.8072 45.0529C40.4922 46.3289 49.4953 47.0321 60.3779 42.605C72.5714 37.631 82.0937 23.8289 79.2989 12.2925C76.4545 0.547694 57.9541 -3.30647 40.4677 3.22998C30.0547 7.13623 18.7764 13.23 10.6639 21.2248C1.01794 30.7039 -0.515523 38.9852 0.127541 42.4227C2.37851 54.6883 18.4301 62.6831 24.8608 68.5946C24.5392 68.7766 24.2424 68.9589 23.9704 69.1154C20.7551 70.7818 8.5121 77.5268 5.44518 84.662C1.98253 92.7349 5.98932 98.5425 8.66051 99.3237C16.9214 101.746 25.3802 97.3966 29.9558 90.2352C34.5065 83.0737 33.9626 73.7768 31.8603 69.5321L31.7858 69.3758L34.3086 67.8133C35.9413 66.7977 37.5489 65.8602 38.9585 65.0526C38.1672 67.3182 37.5981 70.0005 37.3016 73.9068C36.9553 78.4904 38.7361 84.4276 41.0858 86.7714C42.1246 87.7867 43.3612 87.813 44.128 87.813C46.8486 87.813 48.0853 85.443 49.4456 82.6047C51.1275 79.1412 52.6115 75.1307 52.6115 75.1307C52.6115 75.1307 50.7565 85.9901 55.8268 85.9901C57.6818 85.9901 59.5368 83.4641 60.3777 82.162V82.188C60.3777 82.188 60.4272 82.1099 60.5261 81.9276C60.6299 81.7661 60.7288 81.6011 60.8229 81.4331V81.381C61.5649 80.0268 63.222 76.9279 65.6953 71.7977C68.8857 65.1831 71.9528 56.9018 71.9528 56.9018C71.9528 56.9018 72.2496 58.9331 73.1648 62.2664C73.7086 64.2458 74.8958 66.4071 75.811 68.5164C75.069 69.6102 74.6238 70.2354 74.6238 70.2354L74.6485 70.2615C74.0552 71.0948 73.3871 71.9805 72.6948 72.8656C70.172 76.0427 67.1546 79.6628 66.7589 80.7044C66.2889 81.9281 66.3879 82.8396 67.303 83.569C67.9708 84.0899 69.158 84.1938 70.4194 84.0899C72.6948 83.9333 74.2778 83.3347 75.0692 82.9698C76.3059 82.5011 77.7157 81.7979 79.076 80.7563C81.5493 78.8294 83.0581 76.0951 82.9097 72.4492C82.8355 70.444 82.2171 68.4649 81.4504 66.5899C81.673 66.2513 81.8958 65.9125 82.1182 65.5482C86.026 59.5323 89.0435 52.918 89.0435 52.918C89.0435 52.918 89.3403 54.9492 90.2554 58.2826C90.7251 59.9753 91.6652 61.8245 92.5061 63.6474C88.8456 66.7985 86.5454 70.4443 85.754 72.8401C84.2947 77.2672 85.4324 79.2724 87.5842 79.7412C88.5486 79.9495 89.9339 79.4808 90.9724 79.012C92.2586 78.5693 93.8168 77.8138 95.2515 76.6943C97.7249 74.7672 100.099 72.0849 99.9756 68.4651C99.9014 66.7985 99.4809 65.1578 98.9121 63.5953C102.028 62.2412 106.06 61.4599 111.18 62.111C122.186 63.4651 124.363 70.7047 123.942 73.7255C123.522 76.7466 121.222 78.413 120.455 78.9339C119.688 79.4287 119.441 79.6112 119.515 79.9755C119.614 80.5227 119.96 80.4964 120.628 80.3925C121.543 80.236 126.415 77.9185 126.613 72.3458C126.91 65.1833 120.455 57.3709 109.003 57.4487ZM24.1188 87.5789C20.483 91.7716 15.3632 93.3602 13.1867 92.006C10.837 90.5737 11.7519 84.4018 16.2289 79.9487C18.9495 77.2404 22.4864 74.7404 24.8113 73.2039C25.3307 72.8654 26.1222 72.3709 27.062 71.7716C27.2104 71.6677 27.3094 71.6154 27.3094 71.6154C27.4825 71.5112 27.6804 71.381 27.8782 71.2508C29.5353 77.605 27.9524 83.1779 24.1188 87.5789ZM50.707 68.5425C49.4456 71.7977 46.7744 80.1571 45.1667 79.6883C43.7814 79.2977 42.9408 72.9696 44.8944 66.7196C45.8838 63.5682 47.9861 59.8185 49.2228 58.3599C51.2264 56.0162 53.4027 55.2349 53.947 56.1985C54.5901 57.4487 51.4985 66.5112 50.707 68.5425ZM72.6454 79.5841C72.1012 79.8708 71.6066 80.0789 71.384 79.9229C71.2108 79.8188 71.6063 79.4281 71.6063 79.4281C71.6063 79.4281 74.3517 76.3292 75.44 74.8969C76.0583 74.0638 76.8003 73.1003 77.5918 72.0063V72.3188C77.592 76.0685 74.1788 78.5685 72.6454 79.5841ZM89.5626 75.5216C89.1669 75.2091 89.2166 74.2456 90.552 71.2248C91.0716 70.0268 92.2586 68.0216 94.3114 66.1206C94.5588 66.9018 94.7074 67.6568 94.6824 68.3602C94.6579 73.0477 91.4921 74.7925 89.5626 75.5216Z" fill="#CF649A"/>
</svg>
